<?xml version="1.0" encoding="UTF-8"?>
<svg width="1080px" height="486px" viewBox="0 0 1080 486" version="1.1" xmlns="http://www.w3.org/2000/svg" xmlns:xlink="http://www.w3.org/1999/xlink">
    <!-- Generator: Sketch 63.1 (92452) - https://sketch.com -->
    <title>CraigBookerNameLogo</title>
    <desc>Created with Sketch.</desc>
    <g id="CraigBookerNameLogo" stroke="none" stroke-width="1" fill="none" fill-rule="evenodd">
        <g id="Group" transform="translate(-4.000000, 3.000000)">
            <g id="Text-Layers"></g>
            <g id="Century-Gothic---Bold-Copy" transform="translate(8.000000, 15.000000)" fill="#000000" fill-rule="nonzero">
                <path d="M53.7391304,464 C69.2173913,464 81.3478261,461.757081 90.1304348,457.271244 C98.9130435,452.785407 106.086957,446.012237 111.652174,436.951734 C117.217391,427.89123 120,417.853614 120,406.838885 C120,395.380014 117.304348,385.453433 111.913043,377.059143 C106.521739,368.664854 98,361.669613 86.3478261,356.073419 C93.3043478,350.743712 98.326087,345.036483 101.413043,338.951734 C104.5,332.866984 106.043478,326.093814 106.043478,318.632223 C106.043478,307.173351 102.652174,297.224564 95.8695652,288.78586 C89.0869565,280.347156 79.9565217,274.573306 68.4782609,271.46431 C60.3913043,269.15477 47.6086957,268 30.1304348,268 L30.1304348,268 L0,268 L0,464 L53.7391304,464 Z M44.3816794,344 L36,344 L36,304 L45.8931298,304 C54.6870229,304 61.2366412,305.741935 65.5419847,309.225806 C69.8473282,312.709677 72,317.419355 72,323.354839 C72,329.72043 69.7328244,334.752688 65.1984733,338.451613 C60.6641221,342.150538 53.7251908,344 44.3816794,344 L44.3816794,344 Z M45.2054795,428 L36,428 L36,380 L43.6273973,380 C58.0931507,380 68.4383562,382.334218 74.6630137,387.002653 C80.8876712,391.671088 84,398.037135 84,406.100796 C84,413.230769 81.3479452,418.66313 76.0438356,422.397878 C70.739726,426.132626 60.460274,428 45.2054795,428 L45.2054795,428 Z M250.667539,468 C278.793194,468 302.713351,458.185113 322.42801,438.55534 C342.14267,418.925566 352,394.938511 352,366.594175 C352,337.985761 342.009162,313.734628 322.027487,293.840777 C302.045812,273.946926 278.170157,264 250.400524,264 C232.065445,264 214.954188,268.55534 199.066754,277.666019 C183.179319,286.776699 170.696335,299.12233 161.617801,314.702913 C152.539267,330.283495 148,347.360518 148,365.933981 C148,393.662136 157.746073,417.605178 177.23822,437.763107 C196.730366,457.921036 221.206806,468 250.667539,468 Z M248.530021,432 C232.982747,432 219.202208,427.116 207.188406,417.348 C191.729469,404.852 184,387.868 184,366.396 C184,347.124 190.139406,331.24 202.418219,318.744 C214.697032,306.248 229.846791,300 247.867495,300 C265.711525,300 280.861284,306.402 293.31677,319.206 C305.772257,332.01 312,347.652 312,366.132 C312,384.7 305.816425,400.32 293.449275,412.992 C281.082126,425.664 266.109041,432 248.530021,432 Z M478.667539,468 C506.793194,468 530.713351,458.185113 550.42801,438.55534 C570.14267,418.925566 580,394.938511 580,366.594175 C580,337.985761 570.009162,313.734628 550.027487,293.840777 C530.045812,273.946926 506.170157,264 478.400524,264 C460.065445,264 442.954188,268.55534 427.066754,277.666019 C411.179319,286.776699 398.696335,299.12233 389.617801,314.702913 C380.539267,330.283495 376,347.360518 376,365.933981 C376,393.662136 385.746073,417.605178 405.23822,437.763107 C424.730366,457.921036 449.206806,468 478.667539,468 Z M476.530021,432 C460.982747,432 447.202208,427.116 435.188406,417.348 C419.729469,404.852 412,387.868 412,366.396 C412,347.124 418.139406,331.24 430.418219,318.744 C442.697032,306.248 457.846791,300 475.867495,300 C493.711525,300 508.861284,306.402 521.31677,319.206 C533.772257,332.01 540,347.652 540,366.132 C540,384.7 533.816425,400.32 521.449275,412.992 C509.082126,425.664 494.109041,432 476.530021,432 Z M649.062675,464 L649.062675,376.992522 L708.520112,464 L752,464 L678.136576,355.407206 L745.451824,268 L701.317119,268 L649.062675,335.420802 L649.062675,268 L612,268 L612,464 L649.062675,464 Z M888,464 L888,427.35826 L817.389788,427.35826 L817.389788,375.793338 L888,375.793338 L888,339.951054 L817.389788,339.951054 L817.389788,304.508498 L888,304.508498 L888,268 L780,268 L780,464 L888,464 Z M960.818664,464 L960.818664,380.989803 L964.23754,380.989803 L1007.76246,464 L1048,464 L1002.23966,376.859279 C1014.51255,372.417856 1023.6953,365.866757 1029.78791,357.205982 C1035.88052,348.545207 1038.92683,337.774756 1038.92683,324.89463 C1038.92683,312.636302 1036.16543,302.021301 1030.64263,293.049626 C1025.11983,284.077952 1017.82185,277.660095 1008.74867,273.796057 C999.675504,269.932019 984.443973,268 963.054083,268 L963.054083,268 L924,268 L924,464 L960.818664,464 Z M971.987616,344 L960,344 L960,304 L970.489164,304 C980.660475,304 987.653251,304.6866 991.467492,306.059801 C995.281734,307.433001 998.324045,309.692137 1000.59443,312.837209 C1002.86481,315.982281 1004,319.681063 1004,323.933555 C1004,331.109635 1001.70691,336.248062 997.120743,339.348837 C992.534572,342.449612 984.156863,344 971.987616,344 L971.987616,344 Z" id="BOOKER"></path>
                <path d="M102.905263,204 C119.264561,204 133.820819,201.293204 146.574035,195.879612 C159.327251,190.466019 172.872047,180.761165 187.208421,166.765049 L187.208421,166.765049 L162.141754,140.621359 C151.499415,151.184466 141.736608,158.468608 132.853333,162.473786 C123.970058,166.478964 114.163275,168.481553 103.432982,168.481553 C90.8556725,168.481553 79.4217544,165.620712 69.1312281,159.899029 C58.8407018,154.177346 50.8809357,146.299029 45.2519298,136.264078 C39.622924,126.229126 36.8084211,114.741748 36.8084211,101.801942 C36.8084211,83.228479 43.1630409,67.6038835 55.8722807,54.9281553 C68.5815205,42.2524272 84.2152047,35.9145631 102.773333,35.9145631 C124.761637,35.9145631 144.551111,45.2012945 162.141754,63.7747573 L162.141754,63.7747573 L188,39.0834951 C177.269708,26.5838188 164.494503,16.9449838 149.674386,10.1669903 C134.854269,3.38899676 119.440468,0 103.432982,0 C84.6109942,0 67.0423392,4.57734628 50.7270175,13.7320388 C34.4116959,22.8867314 21.8783626,34.9902913 13.1270175,50.0427184 C4.37567251,65.0951456 0,82.3042071 0,101.669903 C0,131.598706 9.60888889,156.135922 28.8266667,175.281553 C48.0444444,194.427184 72.7373099,204 102.905263,204 Z M264.818664,200 L264.818664,116.989803 L268.23754,116.989803 L311.76246,200 L352,200 L306.239661,112.859279 C318.512549,108.417856 327.695299,101.866757 333.787911,93.2059823 C339.880523,84.5452073 342.926829,73.7747564 342.926829,60.8946295 C342.926829,48.6363018 340.165429,38.0213007 334.64263,29.0496261 C329.11983,20.0779515 321.821845,13.6600952 312.748674,9.7960571 C303.675504,5.93201903 288.443973,4 267.054083,4 L267.054083,4 L228,4 L228,200 L264.818664,200 Z M271.987616,80 L260,80 L260,40 L270.489164,40 C280.660475,40 287.653251,40.6866002 291.467492,42.0598007 C295.281734,43.4330011 298.324045,45.6921373 300.594427,48.8372093 C302.864809,51.9822813 304,55.6810631 304,59.9335548 C304,67.1096346 301.706914,72.248062 297.120743,75.3488372 C292.534572,78.4496124 284.156863,80 271.987616,80 L271.987616,80 Z M402.608327,200 L418.529287,159.627464 L498.134086,159.627464 L513.391673,200 L552,200 L476.90614,4 L439.226535,4 L364,200 L402.608327,200 Z M484,124 L432,124 L458.066496,56 L484,124 Z M616,200 L616,4 L576,4 L576,200 L616,200 Z M752.251145,204 C770.912579,204 787.175932,199.994822 801.041203,191.984466 C814.906475,183.97411 826.199259,172.354693 834.919555,157.126214 C843.639852,141.897735 848,125.788997 848,108.8 L848,108.8 L847.738391,100.613592 L750.9431,100.613592 L750.9431,135.339806 L806.665795,135.339806 C801.346414,146.783172 794.348376,155.189644 785.671681,160.559223 C776.994986,165.928803 766.334423,168.613592 753.689993,168.613592 C734.243732,168.613592 717.893176,162.099676 704.638326,149.071845 C691.383475,136.044013 684.75605,120.15534 684.75605,101.405825 C684.75605,83.2724919 691.143667,67.8679612 703.918901,55.192233 C716.694136,42.5165049 732.543274,36.1786408 751.466318,36.1786408 C773.179856,36.1786408 792.190102,44.8932039 808.497057,62.3223301 L808.497057,62.3223301 L834.265533,36.5747573 C822.493133,23.7229773 810.459124,14.6563107 798.163506,9.37475728 C783.60061,3.12491909 767.947678,0 751.204709,0 C719.201221,0 693.214737,11.3113269 673.245258,33.9339806 C656.415086,52.9475728 648,75.3061489 648,101.009709 C648,119.759223 652.556355,137.232362 661.669065,153.429126 C670.781775,169.62589 683.164596,182.10356 698.817528,190.862136 C714.47046,199.620712 732.281666,204 752.251145,204 Z" id="CRAIG"></path>
            </g>
        </g>
    </g>
</svg>