<?xml version="1.0" encoding="UTF-8"?>
<svg width="197px" height="195px" viewBox="0 0 197 195" version="1.1" xmlns="http://www.w3.org/2000/svg" xmlns:xlink="http://www.w3.org/1999/xlink">
    <!-- Generator: Sketch 63.1 (92452) - https://sketch.com -->
    <title>CraigBookerInitialsLogo@1x</title>
    <desc>Created with Sketch.</desc>
    <defs>
        <path d="M40.53,77.87 C44.7833333,77.87 48.56,77.43 51.86,76.55 C55.16,75.67 57.9833333,74.7166667 60.33,73.69 C63.0433333,72.4433333 65.39,71.0133333 67.37,69.4 L67.37,69.4 L55.82,49.05 C54.72,50.15 53.4366667,51.1033333 51.97,51.91 C50.7233333,52.6433333 49.1833333,53.3033333 47.35,53.89 C45.5166667,54.4766667 43.4266667,54.77 41.08,54.77 C38.7333333,54.77 36.57,54.3666667 34.59,53.56 C32.61,52.7533333 30.8866667,51.6533333 29.42,50.26 C27.9533333,48.8666667 26.7983333,47.235 25.955,45.365 C25.1116667,43.495 24.69,41.4966667 24.69,39.37 C24.69,37.2433333 25.0933333,35.245 25.9,33.375 C26.7066667,31.505 27.825,29.8733333 29.255,28.48 C30.685,27.0866667 32.3533333,25.9866667 34.26,25.18 C36.1666667,24.3733333 38.2566667,23.97 40.53,23.97 C42.73,23.97 44.6916667,24.245 46.415,24.795 C48.1383333,25.345 49.6233333,25.9133333 50.87,26.5 C52.2633333,27.3066667 53.5466667,28.15 54.72,29.03 L54.72,29.03 L66.27,8.68 C64.29,7.28666667 61.9433333,6.00333333 59.23,4.83 C56.8833333,3.80333333 54.0783333,2.88666667 50.815,2.08 C47.5516667,1.27333333 43.83,0.87 39.65,0.87 C34.37,0.87 29.3833333,1.76833333 24.69,3.565 C19.9966667,5.36166667 15.89,7.94666667 12.37,11.32 C8.85,14.6933333 6.06333333,18.745 4.01,23.475 C1.95666667,28.205 0.93,33.5033333 0.93,39.37 C0.93,45.09 1.92,50.315 3.9,55.045 C5.88,59.775 8.63,63.8266667 12.15,67.2 C15.67,70.5733333 19.85,73.195 24.69,75.065 C29.53,76.935 34.81,77.87 40.53,77.87 Z" id="path-1"></path>
        <filter x="-6.0%" y="-2.6%" width="112.0%" height="110.4%" filterUnits="objectBoundingBox" id="filter-2">
            <feOffset dx="0" dy="2" in="SourceAlpha" result="shadowOffsetOuter1"></feOffset>
            <feGaussianBlur stdDeviation="1" in="shadowOffsetOuter1" result="shadowBlurOuter1"></feGaussianBlur>
            <feColorMatrix values="0 0 0 0 1   0 0 0 0 1   0 0 0 0 1  0 0 0 0.5 0" type="matrix" in="shadowBlurOuter1"></feColorMatrix>
        </filter>
        <path d="M100.415,76 C104.521667,76 108.243333,75.4683333 111.58,74.405 C114.916667,73.3416667 117.74,71.8016667 120.05,69.785 C122.36,67.7683333 124.138333,65.33 125.385,62.47 C126.631667,59.61 127.255,56.42 127.255,52.9 C127.255,49.82 126.796667,47.2166667 125.88,45.09 C124.963333,42.9633333 123.955,41.2033333 122.855,39.81 C121.535,38.1966667 120.068333,36.8766667 118.455,35.85 C119.481667,34.97 120.398333,33.87 121.205,32.55 C121.865,31.45 122.488333,30.075 123.075,28.425 C123.661667,26.775 123.955,24.7766667 123.955,22.43 C123.955,19.13 123.35,16.2516667 122.14,13.795 C120.93,11.3383333 119.243333,9.285 117.08,7.635 C114.916667,5.985 112.313333,4.73833333 109.27,3.895 C106.226667,3.05166667 102.871667,2.63 99.205,2.63 L99.205,2.63 L70.495,2.63 L70.495,76 L100.415,76 Z M95.795,30.02 L93.155,30.02 L93.155,19.9 L95.795,19.9 C99.4616667,19.9 101.295,21.5866667 101.295,24.96 C101.295,28.3333333 99.4616667,30.02 95.795,30.02 L95.795,30.02 Z M95.795,58.73 L93.155,58.73 L93.155,45.97 L95.795,45.97 C101.368333,45.97 104.155,48.0966667 104.155,52.35 C104.155,56.6033333 101.368333,58.73 95.795,58.73 L95.795,58.73 Z" id="path-3"></path>
        <filter x="-7.0%" y="-2.7%" width="114.1%" height="110.9%" filterUnits="objectBoundingBox" id="filter-4">
            <feOffset dx="0" dy="2" in="SourceAlpha" result="shadowOffsetOuter1"></feOffset>
            <feGaussianBlur stdDeviation="1" in="shadowOffsetOuter1" result="shadowBlurOuter1"></feGaussianBlur>
            <feColorMatrix values="0 0 0 0 1   0 0 0 0 1   0 0 0 0 1  0 0 0 0.5 0" type="matrix" in="shadowBlurOuter1"></feColorMatrix>
        </filter>
    </defs>
    <g id="CraigBookerInitialsLogo" stroke="none" stroke-width="1" fill="none" fill-rule="evenodd">
        <g id="Colors" transform="translate(0.000000, 93.000000)"></g>
        <g id="Group-3" transform="translate(3.000000, 2.000000)" fill="#000000">
            <circle id="Oval" stroke="#000000" cx="95.5" cy="95.5" r="95.5"></circle>
            <circle id="WhiteOval" stroke="#FFFFFF" stroke-width="8" cx="95.5" cy="96.5" r="82.5"></circle>
        </g>
        <g id="Group-2" transform="translate(-7.000000, 53.000000)" fill-rule="nonzero">
            <g id="Group-4-Copy" transform="translate(41.000000, 5.000000)">
                <g id="C">
                    <use fill="black" fill-opacity="1" filter="url(#filter-2)" xlink:href="#path-1"></use>
                    <use fill="#FFFFFF" xlink:href="#path-1"></use>
                </g>
                <g id="B">
                    <use fill="black" fill-opacity="1" filter="url(#filter-4)" xlink:href="#path-3"></use>
                    <use fill="#FFFFFF" xlink:href="#path-3"></use>
                </g>
            </g>
        </g>
    </g>
</svg>