<?xml version="1.0" encoding="UTF-8"?>
<svg width="98px" height="98px" viewBox="0 0 98 98" version="1.1" xmlns="http://www.w3.org/2000/svg" xmlns:xlink="http://www.w3.org/1999/xlink">
    <!-- Generator: Sketch 62 (91390) - https://sketch.com -->
    <title>CraigBookerInitialsLogoSm@1x</title>
    <desc>Created with Sketch.</desc>
    <defs>
        <path d="M30.1222707,39 C32.2835517,39 34.2026201,38.7771429 35.879476,38.3314286 C37.5563319,37.8857143 38.9909753,37.4028571 40.1834061,36.8828571 C41.5621543,36.2514286 42.7545852,35.5271429 43.7606987,34.71 L43.7606987,34.71 L37.8917031,24.4028571 C37.3327511,24.96 36.6806405,25.4428571 35.9353712,25.8514286 C35.3018923,26.2228571 34.5193595,26.5571429 33.5877729,26.8542857 C32.6561863,27.1514286 31.5941776,27.3 30.4017467,27.3 C29.2093159,27.3 28.1100437,27.0957143 27.1039301,26.6871429 C26.0978166,26.2785714 25.2221252,25.7214286 24.4768559,25.0157143 C23.7315866,24.31 23.144687,23.4835714 22.7161572,22.5364286 C22.2876274,21.5892857 22.0733624,20.5771429 22.0733624,19.5 C22.0733624,18.4228571 22.2783115,17.4107143 22.6882096,16.4635714 C23.0981077,15.5164286 23.6663755,14.69 24.3930131,13.9842857 C25.1196507,13.2785714 25.9673945,12.7214286 26.9362445,12.3128571 C27.9050946,11.9042857 28.9671033,11.7 30.1222707,11.7 C31.2401747,11.7 32.2369723,11.8392857 33.1126638,12.1178571 C33.9883552,12.3964286 34.7429403,12.6842857 35.3764192,12.9814286 C36.084425,13.39 36.7365357,13.8171429 37.3327511,14.2628571 L37.3327511,14.2628571 L43.2017467,3.95571429 C42.1956332,3.25 41.0032023,2.6 39.6244541,2.00571429 C38.4320233,1.48571429 37.0066958,1.02142857 35.3484716,0.612857143 C33.6902475,0.204285714 31.7991266,0 29.6751092,0 C26.9921397,0 24.4582242,0.455 22.0733624,1.365 C19.6885007,2.275 17.6017467,3.58428571 15.8131004,5.29285714 C14.0244541,7.00142857 12.6084425,9.05357143 11.5650655,11.4492857 C10.5216885,13.845 10,16.5285714 10,19.5 C10,22.3971429 10.5030568,25.0435714 11.5091703,27.4392857 C12.5152838,29.835 13.9126638,31.8871429 15.70131,33.5957143 C17.4899563,35.3042857 19.6139738,36.6321429 22.0733624,37.5792857 C24.5327511,38.5264286 27.2157205,39 30.1222707,39 Z M60.3615721,38.0528571 C62.4483261,38.0528571 64.3394469,37.7835714 66.0349345,37.245 C67.7304221,36.7064286 69.1650655,35.9264286 70.3388646,34.905 C71.5126638,33.8835714 72.4163028,32.6485714 73.0497817,31.2 C73.6832606,29.7514286 74,28.1357143 74,26.3528571 C74,24.7928571 73.7671033,23.4742857 73.30131,22.3971429 C72.8355167,21.32 72.3231441,20.4285714 71.7641921,19.7228571 C71.0934498,18.9057143 70.3481805,18.2371429 69.5283843,17.7171429 C70.0500728,17.2714286 70.5158661,16.7142857 70.9257642,16.0457143 C71.2611354,15.4885714 71.5778748,14.7921429 71.8759825,13.9564286 C72.1740902,13.1207143 72.3231441,12.1085714 72.3231441,10.92 C72.3231441,9.24857143 72.0157205,7.79071429 71.4008734,6.54642857 C70.7860262,5.30214286 69.9289665,4.26214286 68.8296943,3.42642857 C67.7304221,2.59071429 66.4075691,1.95928571 64.8611354,1.53214286 C63.3147016,1.105 61.6098981,0.891428571 59.7467249,0.891428571 L59.7467249,0.891428571 L45.1580786,0.891428571 L45.1580786,38.0528571 L60.3615721,38.0528571 Z M58.0139738,14.7642857 L56.6724891,14.7642857 L56.6724891,9.63857143 L58.0139738,9.63857143 C59.877147,9.63857143 60.8087336,10.4928571 60.8087336,12.2014286 C60.8087336,13.91 59.877147,14.7642857 58.0139738,14.7642857 L58.0139738,14.7642857 Z M58.0139738,29.3057143 L56.6724891,29.3057143 L56.6724891,22.8428571 L58.0139738,22.8428571 C60.8459971,22.8428571 62.2620087,23.92 62.2620087,26.0742857 C62.2620087,28.2285714 60.8459971,29.3057143 58.0139738,29.3057143 L58.0139738,29.3057143 Z" id="path-1"></path>
        <filter x="-10.9%" y="-12.8%" width="121.9%" height="135.9%" filterUnits="objectBoundingBox" id="filter-2">
            <feOffset dx="0" dy="2" in="SourceAlpha" result="shadowOffsetOuter1"></feOffset>
            <feGaussianBlur stdDeviation="2" in="shadowOffsetOuter1" result="shadowBlurOuter1"></feGaussianBlur>
            <feColorMatrix values="0 0 0 0 0   0 0 0 0 0   0 0 0 0 0  0 0 0 0.5 0" type="matrix" in="shadowBlurOuter1"></feColorMatrix>
        </filter>
    </defs>
    <g id="CraigBookerInitialsLogoSm" stroke="none" stroke-width="1" fill="none" fill-rule="evenodd">
        <g id="Group-3" transform="translate(1.000000, 1.000000)" fill="#000000">
            <circle id="Oval" stroke="#000000" cx="48" cy="48" r="48"></circle>
            <ellipse id="WhiteOval" stroke="#FFFFFF" stroke-width="4" cx="48" cy="48.5" rx="41" ry="41.5"></ellipse>
        </g>
        <g id="Group-2" transform="translate(7.000000, 28.000000)" fill-rule="nonzero">
            <g id="CB">
                <use fill="black" fill-opacity="1" filter="url(#filter-2)" xlink:href="#path-1"></use>
                <use fill="#FFFFFF" xlink:href="#path-1"></use>
            </g>
        </g>
    </g>
</svg>