<?xml version="1.0" encoding="UTF-8"?>
<svg width="375px" height="67px" viewBox="0 0 375 67" version="1.1" xmlns="http://www.w3.org/2000/svg" xmlns:xlink="http://www.w3.org/1999/xlink">
    <!-- Generator: Sketch 62 (91390) - https://sketch.com -->
    <title>CraigBookerLogo</title>
    <desc>Created with Sketch.</desc>
    <g id="CraigBookerLogo" stroke="none" stroke-width="1" fill="none" fill-rule="evenodd">
        <g id="Group" transform="translate(5.000000, 3.000000)" fill="#000000">
            <g id="BOOKER-Text-Outlines" transform="translate(166.000000, 1.000000)" fill-rule="nonzero">
                <path d="M180.401367,50 L180.401367,34.7900391 L181.036133,34.7900391 L189.117188,50 L196.587891,50 L188.091797,34.0332031 C190.370443,33.219401 192.075358,32.019043 193.206543,30.4321289 C194.337728,28.8452148 194.90332,26.8717448 194.90332,24.5117188 C194.90332,22.265625 194.390625,20.320638 193.365234,18.6767578 C192.339844,17.0328776 190.984863,15.8569336 189.300293,15.1489258 C187.615723,14.440918 184.78776,14.0869141 180.816406,14.0869141 L180.816406,14.0869141 L173.56543,14.0869141 L173.56543,50 L180.401367,50 Z M182.549805,28.125 L180.401367,28.125 L180.401367,20.7763672 L182.28125,20.7763672 C184.104167,20.7763672 185.357422,20.9025065 186.041016,21.1547852 C186.724609,21.4070638 187.269857,21.8221029 187.676758,22.3999023 C188.083659,22.9777018 188.287109,23.6572266 188.287109,24.4384766 C188.287109,25.7568359 187.876139,26.7008464 187.054199,27.2705078 C186.232259,27.8401693 184.730794,28.125 182.549805,28.125 L182.549805,28.125 Z" id="R"></path>
                <polygon id="E" points="166.730469 50 166.730469 43.2861328 153.913086 43.2861328 153.913086 33.8378906 166.730469 33.8378906 166.730469 27.2705078 153.913086 27.2705078 153.913086 20.7763672 166.730469 20.7763672 166.730469 14.0869141 147.125977 14.0869141 147.125977 50"></polygon>
                <polygon id="K" points="123.05957 50 123.05957 34.0576172 134.143555 50 142.249023 50 128.479492 30.1025391 141.02832 14.0869141 132.800781 14.0869141 123.05957 26.4404297 123.05957 14.0869141 116.150391 14.0869141 116.150391 50"></polygon>
                <path d="M91.1181641,50.9033203 C96.2613932,50.9033203 100.635579,49.0885417 104.240723,45.4589844 C107.845866,41.8294271 109.648438,37.3942057 109.648438,32.1533203 C109.648438,26.8636068 107.821452,22.3795573 104.16748,18.7011719 C100.513509,15.0227865 96.1474609,13.1835938 91.0693359,13.1835938 C87.7164714,13.1835938 84.5874023,14.0258789 81.6821289,15.7104492 C78.7768555,17.3950195 76.4941406,19.6777344 74.8339844,22.5585938 C73.1738281,25.4394531 72.34375,28.5970052 72.34375,32.03125 C72.34375,37.1582031 74.1259766,41.5852865 77.6904297,45.3125 C81.2548828,49.0397135 85.7307943,50.9033203 91.1181641,50.9033203 Z M91.1181641,44.2871094 C88.2535807,44.2871094 85.7145182,43.3837891 83.5009766,41.5771484 C80.6526693,39.2659505 79.2285156,36.1246745 79.2285156,32.1533203 C79.2285156,28.5888672 80.3597005,25.6510417 82.6220703,23.3398438 C84.8844401,21.0286458 87.6757812,19.8730469 90.9960938,19.8730469 C94.2838542,19.8730469 97.0751953,21.0571289 99.3701172,23.425293 C101.665039,25.793457 102.8125,28.6865234 102.8125,32.1044922 C102.8125,35.538737 101.673177,38.4277344 99.3945312,40.7714844 C97.1158854,43.1152344 94.3570964,44.2871094 91.1181641,44.2871094 Z" id="O"></path>
                <path d="M50.1181641,50.9033203 C55.2613932,50.9033203 59.6355794,49.0885417 63.2407227,45.4589844 C66.8458659,41.8294271 68.6484375,37.3942057 68.6484375,32.1533203 C68.6484375,26.8636068 66.8214518,22.3795573 63.1674805,18.7011719 C59.5135091,15.0227865 55.1474609,13.1835938 50.0693359,13.1835938 C46.7164714,13.1835938 43.5874023,14.0258789 40.6821289,15.7104492 C37.7768555,17.3950195 35.4941406,19.6777344 33.8339844,22.5585938 C32.1738281,25.4394531 31.34375,28.5970052 31.34375,32.03125 C31.34375,37.1582031 33.1259766,41.5852865 36.6904297,45.3125 C40.2548828,49.0397135 44.7307943,50.9033203 50.1181641,50.9033203 Z M50.1181641,44.2871094 C47.2535807,44.2871094 44.7145182,43.3837891 42.5009766,41.5771484 C39.6526693,39.2659505 38.2285156,36.1246745 38.2285156,32.1533203 C38.2285156,28.5888672 39.3597005,25.6510417 41.6220703,23.3398438 C43.8844401,21.0286458 46.6757812,19.8730469 49.9960938,19.8730469 C53.2838542,19.8730469 56.0751953,21.0571289 58.3701172,23.425293 C60.6650391,25.793457 61.8125,28.6865234 61.8125,32.1044922 C61.8125,35.538737 60.6731771,38.4277344 58.3945312,40.7714844 C56.1158854,43.1152344 53.3570964,44.2871094 50.1181641,44.2871094 Z" id="O"></path>
                <path d="M14.1601562,50 C17.0572917,50 19.3277995,49.5890299 20.9716797,48.7670898 C22.6155599,47.9451497 23.9583333,46.7041016 25,45.0439453 C26.0416667,43.3837891 26.5625,41.5445964 26.5625,39.5263672 C26.5625,37.4267578 26.0579427,35.6079102 25.0488281,34.0698242 C24.0397135,32.5317383 22.4446615,31.25 20.2636719,30.2246094 C21.5657552,29.2480469 22.5056966,28.2023112 23.0834961,27.0874023 C23.6612956,25.9724935 23.9501953,24.7314453 23.9501953,23.3642578 C23.9501953,21.2646484 23.3154297,19.4417318 22.0458984,17.8955078 C20.7763672,16.3492839 19.0673828,15.2913411 16.9189453,14.7216797 C15.4052734,14.2985026 13.0126953,14.0869141 9.74121094,14.0869141 L9.74121094,14.0869141 L4.1015625,14.0869141 L4.1015625,50 L14.1601562,50 Z M12.4267578,28.1738281 L10.9375,28.1738281 L10.9375,20.6054688 L12.6953125,20.6054688 C14.2578125,20.6054688 15.4215495,20.9350586 16.1865234,21.5942383 C16.9514974,22.253418 17.3339844,23.1445312 17.3339844,24.2675781 C17.3339844,25.4720052 16.9311523,26.4241536 16.1254883,27.1240234 C15.3198242,27.8238932 14.0869141,28.1738281 12.4267578,28.1738281 L12.4267578,28.1738281 Z M12.6464844,43.4814453 L10.9375,43.4814453 L10.9375,34.2773438 L12.3535156,34.2773438 C15.0390625,34.2773438 16.9596354,34.7249349 18.1152344,35.6201172 C19.2708333,36.5152995 19.8486328,37.7360026 19.8486328,39.2822266 C19.8486328,40.6494141 19.3562826,41.6910807 18.371582,42.4072266 C17.3868815,43.1233724 15.4785156,43.4814453 12.6464844,43.4814453 L12.6464844,43.4814453 Z" id="B"></path>
            </g>
            <g id="Craig---Text-Outlines" fill-opacity="0.95" font-family="CenturyGothic-Bold, Century Gothic" font-size="50" font-weight="bold">
                <text id="G">
                    <tspan x="118" y="50">G</tspan>
                </text>
                <text id="I">
                    <tspan x="104" y="50">I</tspan>
                </text>
                <text id="A">
                    <tspan x="67" y="50">A</tspan>
                </text>
                <text id="R">
                    <tspan x="38" y="50">R</tspan>
                </text>
                <text id="C">
                    <tspan x="0" y="50">C</tspan>
                </text>
            </g>
        </g>
    </g>
</svg>